P2
3 2
255
76 149 29 225 254 0 